<?xml version="1.0" encoding="utf-8"?>
<!-- Generator: Adobe Illustrator 27.2.0, SVG Export Plug-In . SVG Version: 6.00 Build 0)  -->
<svg version="1.1" id="Layer_1" xmlns="http://www.w3.org/2000/svg" xmlns:xlink="http://www.w3.org/1999/xlink" x="0px" y="0px"
	 viewBox="0 0 237.6 202.1" style="enable-background:new 0 0 237.6 202.1;" xml:space="preserve">
<style type="text/css">
	.st0{clip-path:url(#SVGID_00000126288211143736049320000001174595395025844360_);}
	.st1{fill:#112E51;}
	.st2{fill:#122F52;}
	.st3{fill:#123053;}
	.st4{fill:#123054;}
	.st5{fill:#133154;}
	.st6{fill:#133155;}
	.st7{fill:#133256;}
	.st8{fill:#143257;}
	.st9{fill:#143358;}
	.st10{fill:#143459;}
	.st11{fill:#14345A;}
	.st12{fill:#15355B;}
	.st13{fill:#15355C;}
	.st14{fill:#15365D;}
	.st15{fill:#16365D;}
	.st16{fill:#16375E;}
	.st17{fill:#16375F;}
	.st18{fill:#163860;}
	.st19{fill:#173860;}
	.st20{fill:#173961;}
	.st21{fill:#173962;}
	.st22{fill:#173963;}
	.st23{fill:#173A63;}
	.st24{fill:#183A64;}
	.st25{fill:#183B65;}
	.st26{fill:#183C66;}
	.st27{fill:#193C67;}
	.st28{fill:#193C68;}
	.st29{fill:#193D68;}
	.st30{fill:#193D69;}
	.st31{fill:#193E6A;}
	.st32{fill:#193E6B;}
	.st33{fill:#1A3F6B;}
	.st34{fill:#1A3F6C;}
	.st35{fill:#1A3F6D;}
	.st36{fill:#1A406E;}
	.st37{fill:#1A416F;}
	.st38{fill:#1B4170;}
	.st39{fill:#1B4270;}
	.st40{fill:#1B4271;}
	.st41{fill:#1B4272;}
	.st42{fill:#1B4373;}
	.st43{fill:#1C4474;}
	.st44{fill:#1C4475;}
	.st45{fill:#1C4576;}
	.st46{fill:#1C4577;}
	.st47{fill:#1C4678;}
	.st48{fill:#1C4679;}
	.st49{fill:#1D477A;}
	.st50{fill:#1D487B;}
	.st51{fill:#1D487C;}
	.st52{fill:#1D487D;}
	.st53{fill:#1D497D;}
	.st54{fill:#1D497E;}
	.st55{fill:#1E4A7F;}
	.st56{fill:#1E4A80;}
	.st57{fill:#1E4B80;}
	.st58{fill:#1E4B81;}
	.st59{fill:#1E4B82;}
	.st60{fill:#1E4C83;}
	.st61{fill:#1E4C84;}
	.st62{fill:#1E4D84;}
	.st63{fill:#1E4D85;}
	.st64{fill:#1F4E86;}
	.st65{fill:#1F4E87;}
	.st66{fill:#1F4E88;}
	.st67{fill:#1F4F88;}
	.st68{fill:#1F4F89;}
	.st69{fill:#1F508A;}
	.st70{fill:#1F508B;}
	.st71{fill:#1F518C;}
	.st72{fill:#1F518D;}
	.st73{fill:#1F528E;}
	.st74{fill:#1F528F;}
	.st75{fill:#205390;}
	.st76{fill:#205391;}
	.st77{fill:#205492;}
	.st78{fill:#205593;}
	.st79{fill:#205594;}
	.st80{fill:#FFFFFF;}
</style>
<g>
	<g>
		<g>
			<defs>
				<rect id="SVGID_1_" width="203" height="203"/>
			</defs>
			<clipPath id="SVGID_00000183246137791395700370000005751923397770077369_">
				<use xlink:href="#SVGID_1_"  style="overflow:visible;"/>
			</clipPath>
			<g style="clip-path:url(#SVGID_00000183246137791395700370000005751923397770077369_);">
				<rect class="st1" width="203" height="203"/>
				<circle class="st1" cx="101.5" cy="101.5" r="101.5"/>
				<circle class="st1" cx="101.5" cy="101.5" r="96.3"/>
				<circle class="st1" cx="101.5" cy="101.5" r="90.9"/>
				<circle class="st2" cx="101.5" cy="101.5" r="89.9"/>
				<circle class="st2" cx="101.5" cy="101.5" r="88.9"/>
				<circle class="st3" cx="101.5" cy="101.5" r="88"/>
				<circle class="st4" cx="101.5" cy="101.5" r="86.9"/>
				<circle class="st5" cx="101.5" cy="101.5" r="86"/>
				<circle class="st6" cx="101.5" cy="101.5" r="85"/>
				<circle class="st7" cx="101.5" cy="101.5" r="83.9"/>
				<circle class="st7" cx="101.5" cy="101.5" r="82.9"/>
				<circle class="st8" cx="101.5" cy="101.5" r="81.9"/>
				<circle class="st9" cx="101.5" cy="101.5" r="80.9"/>
				<circle class="st9" cx="101.5" cy="101.5" r="79.9"/>
				<circle class="st10" cx="101.5" cy="101.5" r="78.9"/>
				<circle class="st11" cx="101.5" cy="101.5" r="77.8"/>
				<circle class="st12" cx="101.5" cy="101.5" r="76.8"/>
				<circle class="st12" cx="101.5" cy="101.5" r="75.8"/>
				<circle class="st13" cx="101.5" cy="101.5" r="74.8"/>
				<circle class="st14" cx="101.5" cy="101.5" r="73.8"/>
				<circle class="st15" cx="101.5" cy="101.5" r="72.8"/>
				<circle class="st16" cx="101.5" cy="101.5" r="71.7"/>
				<circle class="st17" cx="101.5" cy="101.5" r="70.7"/>
				<circle class="st18" cx="101.5" cy="101.5" r="69.7"/>
				<circle class="st19" cx="101.5" cy="101.5" r="68.7"/>
				<circle class="st20" cx="101.5" cy="101.5" r="67.8"/>
				<circle class="st21" cx="101.5" cy="101.5" r="66.8"/>
				<circle class="st22" cx="101.5" cy="101.5" r="65.8"/>
				<circle class="st23" cx="101.5" cy="101.5" r="64.7"/>
				<circle class="st24" cx="101.5" cy="101.5" r="63.7"/>
				<circle class="st25" cx="101.5" cy="101.5" r="62.7"/>
				<circle class="st25" cx="101.5" cy="101.5" r="61.7"/>
				<circle class="st26" cx="101.5" cy="101.5" r="60.7"/>
				<circle class="st27" cx="101.5" cy="101.5" r="59.7"/>
				<circle class="st28" cx="101.5" cy="101.5" r="58.6"/>
				<circle class="st29" cx="101.5" cy="101.5" r="57.6"/>
				<circle class="st30" cx="101.5" cy="101.5" r="56.6"/>
				<circle class="st31" cx="101.5" cy="101.5" r="55.6"/>
				<circle class="st32" cx="101.5" cy="101.5" r="54.6"/>
				<circle class="st33" cx="101.5" cy="101.5" r="53.5"/>
				<circle class="st34" cx="101.5" cy="101.5" r="52.5"/>
				<circle class="st35" cx="101.5" cy="101.5" r="51.5"/>
				<circle class="st36" cx="101.5" cy="101.5" r="50.5"/>
				<circle class="st36" cx="101.5" cy="101.5" r="49.5"/>
				<circle class="st37" cx="101.5" cy="101.5" r="48.6"/>
				<circle class="st38" cx="101.5" cy="101.5" r="47.4"/>
				<circle class="st39" cx="101.5" cy="101.5" r="46.6"/>
				<circle class="st40" cx="101.5" cy="101.5" r="45.5"/>
				<circle class="st41" cx="101.5" cy="101.5" r="44.5"/>
				<circle class="st42" cx="101.5" cy="101.5" r="43.5"/>
				<circle class="st42" cx="101.5" cy="101.5" r="42.5"/>
				<circle class="st43" cx="101.5" cy="101.5" r="41.5"/>
				<circle class="st44" cx="101.5" cy="101.5" r="40.4"/>
				<circle class="st45" cx="101.5" cy="101.5" r="39.4"/>
				<circle class="st46" cx="101.5" cy="101.5" r="38.4"/>
				<circle class="st46" cx="101.5" cy="101.5" r="37.4"/>
				<circle class="st47" cx="101.5" cy="101.5" r="36.4"/>
				<circle class="st48" cx="101.5" cy="101.5" r="35.4"/>
				<circle class="st49" cx="101.5" cy="101.5" r="34.3"/>
				<circle class="st49" cx="101.5" cy="101.5" r="33.3"/>
				<circle class="st50" cx="101.5" cy="101.5" r="32.3"/>
				<circle class="st51" cx="101.5" cy="101.5" r="31.3"/>
				<circle class="st52" cx="101.5" cy="101.5" r="30.3"/>
				<circle class="st53" cx="101.5" cy="101.5" r="29.3"/>
				<circle class="st54" cx="101.5" cy="101.5" r="28.2"/>
				<circle class="st55" cx="101.5" cy="101.5" r="27.3"/>
				<circle class="st56" cx="101.5" cy="101.5" r="26.3"/>
				<circle class="st57" cx="101.5" cy="101.5" r="25.3"/>
				<circle class="st58" cx="101.5" cy="101.5" r="24.3"/>
				<circle class="st59" cx="101.5" cy="101.5" r="23.3"/>
				<circle class="st60" cx="101.5" cy="101.5" r="22.3"/>
				<circle class="st61" cx="101.5" cy="101.5" r="21.2"/>
				<circle class="st62" cx="101.5" cy="101.5" r="20.2"/>
				<circle class="st63" cx="101.5" cy="101.5" r="19.2"/>
				<circle class="st64" cx="101.5" cy="101.5" r="18.2"/>
				<circle class="st65" cx="101.5" cy="101.5" r="17.2"/>
				<circle class="st66" cx="101.5" cy="101.5" r="16.2"/>
				<circle class="st67" cx="101.5" cy="101.5" r="15.1"/>
				<circle class="st68" cx="101.5" cy="101.5" r="14.1"/>
				<circle class="st69" cx="101.5" cy="101.5" r="13.1"/>
				<circle class="st70" cx="101.5" cy="101.5" r="12.1"/>
				<circle class="st71" cx="101.5" cy="101.5" r="11.1"/>
				<circle class="st71" cx="101.5" cy="101.5" r="10"/>
				<circle class="st72" cx="101.5" cy="101.5" r="9.2"/>
				<circle class="st73" cx="101.5" cy="101.5" r="8.1"/>
				<circle class="st74" cx="101.5" cy="101.5" r="7.1"/>
				<circle class="st75" cx="101.5" cy="101.5" r="6.1"/>
				<circle class="st76" cx="101.5" cy="101.5" r="5.1"/>
				<circle class="st77" cx="101.5" cy="101.5" r="4.1"/>
				<circle class="st77" cx="101.5" cy="101.5" r="3.1"/>
				<circle class="st78" cx="101.5" cy="101.5" r="2"/>
				<circle class="st79" cx="101.5" cy="101.5" r="1"/>
			</g>
		</g>
	</g>
	<path class="st80" d="M157,113.8l22.9,44.1h-28.2l-21-40.2H116V158H90.4v-55.5c0-0.1,0-0.3,0-0.4c0-0.1,0-0.3,0-0.4v-0.6l0,0
		c0.4-4.3,3.7-7.8,8-8.4v-0.1H99c0.4,0,0.6,0,1,0c0.3,0,0.6,0,0.9,0h1.9c0.3,0,0.4,0,0.6,0h41.7c2.3-0.3,4.5-1,6.2-2.5
		c2.4-2.2,3.9-5.2,3.9-8.5c0-4.5-2.7-8.4-6.6-10.2c-1.3-0.6-2.7-0.9-4.2-0.9h-3.4H47.3v22.3H80v25.1H47.3V158H21.8V56.9
		c0-6.6,5.5-12.1,12.1-12.1h110.8c19.6,0.1,35.5,16.2,35.5,35.6C180.2,95.5,170.7,108.7,157,113.8z"/>
</g>
<path class="st1" d="M209.6,190.5H220v1.8H216v10.6h-2.3v-10.6h-4.1V190.5z M234,190.5V203h-1.9v-8.4l-3.3,6.4h-1.4l-3.3-6.2v8.3h-2
	v-12.5h1.8l4.3,8.3l4.3-8.3H234L234,190.5z"/>
</svg>
