<svg width="242" height="67" viewBox="0 0 242 67" fill="none" xmlns="http://www.w3.org/2000/svg">
<path d="M88.4643 58.019H81.6788L80.9677 55.7078H73.8563L73.1452 58.019H66.3597L73.6489 38.2553H81.1751L88.4643 58.019ZM79.3676 50.4928L77.412 44.1222L75.4564 50.4928H79.3676ZM112.997 58.019H107.012V46.1371L102.597 58.019H99.9302L95.5152 46.1371V58.019H89.5298V38.2553H97.7968L101.264 47.7372L104.73 38.2553H112.997V58.019ZM131.202 58.019H116.209V38.2553H131.202V43.4703H122.194V45.426H130.995V50.641H122.194V52.804H131.202V58.019ZM151.55 58.019H144.735L142.009 51.7966H139.846V58.019H133.86V38.2553H144.409C146.641 38.2553 148.379 38.9072 149.624 40.211C150.888 41.495 151.52 43.1049 151.52 45.0408C151.52 46.5816 151.165 47.8458 150.453 48.8335C149.762 49.8212 148.932 50.5521 147.964 51.0262L151.55 58.019ZM143.49 46.5816C144.043 46.5816 144.508 46.4532 144.883 46.1964C145.258 45.9198 145.446 45.5247 145.446 45.0111C145.446 44.5173 145.258 44.142 144.883 43.8852C144.508 43.6086 144.043 43.4703 143.49 43.4703H139.846V46.5816H143.49ZM159.927 58.019H153.942V38.2553H159.927V58.019ZM172.923 58.3746C169.801 58.3746 167.204 57.4264 165.13 55.5301C163.075 53.6139 162.048 51.1546 162.048 48.152C162.048 45.1297 163.075 42.6703 165.13 40.7739C167.184 38.8776 169.782 37.9294 172.923 37.9294C175.293 37.9294 177.199 38.4825 178.641 39.5887C180.103 40.6949 181.19 42.0579 181.901 43.6778L176.745 46.0778C176.488 45.2877 176.004 44.6161 175.293 44.063C174.582 43.4901 173.792 43.2037 172.923 43.2037C171.5 43.2037 170.345 43.6778 169.456 44.6259C168.567 45.5741 168.122 46.7495 168.122 48.152C168.122 49.5545 168.567 50.7299 169.456 51.6781C170.345 52.6262 171.5 53.1003 172.923 53.1003C173.792 53.1003 174.582 52.8238 175.293 52.2707C176.004 51.6978 176.488 51.0163 176.745 50.2262L181.901 52.5966C181.585 53.3275 181.19 54.009 180.715 54.6411C180.241 55.2535 179.649 55.856 178.938 56.4486C178.226 57.0412 177.347 57.5153 176.3 57.8709C175.273 58.2067 174.147 58.3746 172.923 58.3746ZM203.746 58.019H196.961L196.25 55.7078H189.138L188.427 58.019H181.642L188.931 38.2553H196.457L203.746 58.019ZM194.65 50.4928L192.694 44.1222L190.739 50.4928H194.65ZM208.605 57.9302C208.447 58.0882 208.254 58.1672 208.027 58.1672C207.8 58.1672 207.607 58.0882 207.449 57.9302C207.291 57.7721 207.212 57.5795 207.212 57.3524C207.212 57.1252 207.291 56.9326 207.449 56.7746C207.607 56.6165 207.8 56.5375 208.027 56.5375C208.254 56.5375 208.447 56.6165 208.605 56.7746C208.763 56.9326 208.842 57.1252 208.842 57.3524C208.842 57.5795 208.763 57.7721 208.605 57.9302ZM215.575 58.2116C214.143 58.2116 212.938 57.7376 211.96 56.7894C210.982 55.8313 210.493 54.5967 210.493 53.0855C210.493 51.5744 210.982 50.3447 211.96 49.3965C212.938 48.4483 214.143 47.9742 215.575 47.9742C217.135 47.9742 218.414 48.5915 219.412 49.8261L218.434 50.4336C218.118 50.0187 217.703 49.6879 217.19 49.4409C216.686 49.194 216.148 49.0706 215.575 49.0706C214.488 49.0706 213.58 49.4508 212.849 50.2113C212.128 50.962 211.767 51.92 211.767 53.0855C211.767 54.251 212.128 55.214 212.849 55.9745C213.58 56.735 214.488 57.1153 215.575 57.1153C216.118 57.1153 216.622 57.0116 217.086 56.8042C217.56 56.5869 217.94 56.335 218.227 56.0486V54.0337H214.834V52.9374H219.457V56.5079C218.439 57.6437 217.145 58.2116 215.575 58.2116ZM225.959 58.1968C224.507 58.1968 223.327 57.7129 222.418 56.7449C221.509 55.777 221.055 54.5572 221.055 53.0855C221.055 51.6139 221.509 50.3941 222.418 49.4261C223.327 48.4582 224.507 47.9742 225.959 47.9742C227.401 47.9742 228.576 48.4582 229.485 49.4261C230.403 50.3941 230.863 51.6139 230.863 53.0855C230.863 54.5572 230.403 55.777 229.485 56.7449C228.576 57.7129 227.401 58.1968 225.959 58.1968ZM225.959 57.1005C227.045 57.1005 227.919 56.7252 228.581 55.9745C229.253 55.214 229.589 54.251 229.589 53.0855C229.589 51.9102 229.253 50.9472 228.581 50.1965C227.919 49.4459 227.045 49.0706 225.959 49.0706C224.862 49.0706 223.983 49.4459 223.322 50.1965C222.66 50.9472 222.329 51.9102 222.329 53.0855C222.329 54.251 222.66 55.214 223.322 55.9745C223.983 56.7252 224.862 57.1005 225.959 57.1005ZM236.968 58.019H235.442L231.472 48.1372H232.879L236.213 56.6708L239.546 48.1372H240.954L236.968 58.019Z" fill="#112E4F"/>
<path d="M85.5532 30.7734H83.0938V14.5062L76.3676 30.7734H75.3602L68.6636 14.5062V30.7734H66.2043V11.0097H69.7303L75.8639 25.8844L82.0271 11.0097H85.5532V30.7734ZM107.083 30.7734H104.268L102.52 26.3881H92.6821L90.9339 30.7734H88.119L96.06 11.0097H99.112L107.083 30.7734ZM101.779 24.1954L97.6008 13.558L93.3933 24.1954H101.779ZM116.422 30.7734H109.667V11.0097H116.422C119.445 11.0097 121.884 11.948 123.741 13.8246C125.618 15.7013 126.556 18.0618 126.556 20.9064C126.556 23.7707 125.618 26.1313 123.741 27.9881C121.884 29.845 119.445 30.7734 116.422 30.7734ZM116.422 28.5808C118.753 28.5808 120.6 27.8499 121.963 26.3881C123.326 24.9263 124.008 23.0991 124.008 20.9064C124.008 18.694 123.336 16.8569 121.993 15.3951C120.65 13.9333 118.793 13.2024 116.422 13.2024H112.126V28.5808H116.422ZM143.363 30.7734H130.414V11.0097H143.363V13.2024H132.873V19.573H143.155V21.7657H132.873V28.5808H143.363V30.7734ZM157.382 30.7734H154.923V11.0097H157.382V30.7734ZM178.368 30.7734H175.998L164.472 15.0099V30.7734H162.012V11.0097H164.531L175.909 26.4473V11.0097H178.368V30.7734Z" fill="#112E4F"/>
<path d="M11.4804 13.8186C11.8243 12.7 12.7 11.8243 13.8187 11.4804L28.402 6.99803C29.6521 6.6138 31.0122 6.95183 31.9369 7.87658L58.3073 34.247C59.6865 35.6262 59.6865 37.8624 58.3073 39.2416L39.2416 58.3073C37.8624 59.6865 35.6262 59.6865 34.247 58.3073L7.87659 31.9369C6.95184 31.0121 6.61382 29.6521 6.99805 28.402L11.4804 13.8186Z" fill="#112E4F"/>
<path d="M14.9086 15.4607C14.7333 15.1167 15.1007 14.7493 15.4447 14.9246L18.4733 16.4678C18.6272 16.5462 18.814 16.5166 18.9361 16.3945L21.3397 13.9909C21.6127 13.7179 22.0756 13.9538 22.0152 14.3351L21.4835 17.6924C21.4564 17.8629 21.5423 18.0315 21.6962 18.1099L24.7248 19.653C25.0688 19.8283 24.9876 20.3415 24.6062 20.4019L21.2489 20.9336C21.0784 20.9606 20.9446 21.0944 20.9176 21.2649L20.3859 24.6222C20.3255 25.0036 19.8123 25.0848 19.6371 24.7408L18.0939 21.7122C18.0155 21.5583 17.8469 21.4724 17.6764 21.4994L14.3191 22.0312C13.9378 22.0916 13.7019 21.6287 13.9749 21.3557L16.3785 18.9521C16.5006 18.83 16.5302 18.6432 16.4518 18.4893L14.9086 15.4607Z" fill="white"/>
<path d="M13.6607 28.1903C13.4854 27.8462 13.8528 27.4789 14.1968 27.6542L15.9306 28.5376C16.0845 28.616 16.2713 28.5864 16.3934 28.4643L17.7693 27.0883C18.0423 26.8153 18.5052 27.0512 18.4448 27.4325L18.1404 29.3544C18.1134 29.525 18.1993 29.6935 18.3532 29.7719L20.0869 30.6553C20.431 30.8306 20.3497 31.3438 19.9683 31.4042L18.0464 31.7085C17.8759 31.7356 17.7421 31.8693 17.7151 32.0399L17.4107 33.9618C17.3503 34.3431 16.8372 34.4244 16.6619 34.0804L15.7785 32.3466C15.7001 32.1928 15.5315 32.1069 15.361 32.1339L13.4391 32.4383C13.0577 32.4987 12.8219 32.0358 13.0949 31.7627L14.4708 30.3868C14.5929 30.2647 14.6225 30.0779 14.5441 29.924L13.6607 28.1903Z" fill="white"/>
<path d="M27.6383 14.2127C27.463 13.8687 27.8303 13.5013 28.1744 13.6766L29.9081 14.56C30.062 14.6384 30.2488 14.6088 30.3709 14.4867L31.7469 13.1108C32.0199 12.8378 32.4828 13.0736 32.4224 13.455L32.118 15.3769C32.091 15.5474 32.1769 15.716 32.3307 15.7944L34.0645 16.6778C34.4085 16.8531 34.3272 17.3662 33.9459 17.4266L32.024 17.731C31.8534 17.758 31.7197 17.8918 31.6927 18.0623L31.3883 19.9842C31.3279 20.3656 30.8147 20.4469 30.6394 20.1028L29.756 18.3691C29.6776 18.2152 29.5091 18.1293 29.3385 18.1563L27.4167 18.4607C27.0353 18.5211 26.7994 18.0582 27.0725 17.7852L28.4484 16.4093C28.5705 16.2872 28.6001 16.1003 28.5217 15.9465L27.6383 14.2127Z" fill="white"/>
<path d="M16.0573 40.1177L40.1017 16.0732L58.321 34.2924C59.7002 35.6716 59.7002 37.9078 58.321 39.287L39.2711 58.3369C37.8918 59.7161 35.6557 59.7161 34.2765 58.3369L16.0573 40.1177Z" fill="white"/>
<path d="M16.0573 40.1177L20.7996 35.3753L41.5161 56.0919L39.2711 58.3369C37.8918 59.7161 35.6557 59.7161 34.2765 58.3369L16.0573 40.1177Z" fill="#CC202A"/>
<rect x="25.6252" y="30.5498" width="6.82434" height="29.2976" transform="rotate(-45 25.6252 30.5498)" fill="#CC202A"/>
<path d="M35.2762 20.8987L40.1018 16.0731L58.321 34.2924C59.7002 35.6716 59.7002 37.9077 58.321 39.287L55.9928 41.6152L35.2762 20.8987Z" fill="#CC202A"/>
<rect x="20.7998" y="35.3755" width="6.82434" height="29.2976" transform="rotate(-45 20.7998 35.3755)" fill="white"/>
<path d="M30.4507 25.7244L35.2762 20.8988L55.9927 41.6154L51.1672 46.4409L30.4507 25.7244Z" fill="white"/>
</svg>
